<?xml version="1.0" encoding="UTF-8" standalone="no"?>
<!-- Created with Inkscape (http://www.inkscape.org/) -->

<svg
   xmlns:dc="http://purl.org/dc/elements/1.1/"
   xmlns:cc="http://creativecommons.org/ns#"
   xmlns:rdf="http://www.w3.org/1999/02/22-rdf-syntax-ns#"
   xmlns:svg="http://www.w3.org/2000/svg"
   xmlns="http://www.w3.org/2000/svg"
   xmlns:sodipodi="http://sodipodi.sourceforge.net/DTD/sodipodi-0.dtd"
   xmlns:inkscape="http://www.inkscape.org/namespaces/inkscape"
   sodipodi:docname="male-body-silhouette.svg"
   inkscape:version="0.48.4 r9939"
   version="1.1"
   id="svg4390"
   height="984.45612"
   width="278.79965">
  <sodipodi:namedview
     id="base"
     pagecolor="#ffffff"
     bordercolor="#666666"
     borderopacity="1.0"
     inkscape:pageopacity="0.0"
     inkscape:pageshadow="2"
     inkscape:zoom="0.80856829"
     inkscape:cx="139.39983"
     inkscape:cy="442.7579"
     inkscape:document-units="px"
     inkscape:current-layer="layer1"
     showgrid="false"
     inkscape:window-width="684"
     inkscape:window-height="894"
     inkscape:window-x="261"
     inkscape:window-y="49"
     inkscape:window-maximized="0" />
  <defs
     id="defs4392">
    <inkscape:perspective
       id="perspective4398"
       inkscape:persp3d-origin="372.04724 : 350.78739 : 1"
       inkscape:vp_z="744.09448 : 526.18109 : 1"
       inkscape:vp_y="0 : 1000 : 0"
       inkscape:vp_x="0 : 526.18109 : 1"
       sodipodi:type="inkscape:persp3d" />
    <inkscape:perspective
       sodipodi:type="inkscape:persp3d"
       inkscape:vp_x="0 : 0.5 : 1"
       inkscape:vp_y="0 : 1000 : 0"
       inkscape:vp_z="1 : 0.5 : 1"
       inkscape:persp3d-origin="0.5 : 0.33333333 : 1"
       id="perspective4385" />
  </defs>
  <metadata
     id="metadata4395">
    <rdf:RDF>
      <cc:Work
         rdf:about="">
        <dc:format>image/svg+xml</dc:format>
        <dc:type
           rdf:resource="http://purl.org/dc/dcmitype/StillImage" />
        <dc:title></dc:title>
      </cc:Work>
    </rdf:RDF>
  </metadata>
  <g
     transform="translate(-37.896811,-34.051597)"
     id="layer1"
     inkscape:groupmode="layer"
     inkscape:label="Layer 1">
    <path
       sodipodi:nodetypes="cccccccccccccccccccccccsccccccccccccscccccccccccccccccccc"
       id="path3547"
       d="M184.30988 39.407137L179.43021 39.500977L179.43021 39.594817L174.64437 39.500977L167.73736634 40.3224492896L161.72432291 42.541491457L152.226952031 50.5078727187L145.845927949 62.0712953711L142.27492125 75.902934L141.20760252 90.6739631914L142.337642344 105.055557531L145.358711309 117.718891605L149.96448 127.33514L152.584070156 136.752789375L152.10955125 146.173495L148.3692 165.01185L140.709007041 169.84563209L130.581562578 173.212921719L106.713525625 177.40126375L84.3423021094 181.283356406L76.0858744434 184.267834316L71.045105 188.56568L66.8186088535 200.968773184L62.5792249531 219.740851719L55.128625625 267.63291875L50.8269704844 314.723788906L50.5237668184 332.494371348L51.807923 343.49537L49.2502574761 349.760071836L47.7753545742 357.775449687L47.5670889062 378.009995L50.1696305352 402.102529063L54.569484 427.956575L64.7071445937 476.563295L69.872107 507.05834L67.9176377266 525.121449219L68.49917575 539.969795L71.1088568359 551.851909531L75.23881675 561.016325L80.3811912578 567.711573594L86.028116125 572.1861875L91.6717271172 574.688698906L96.80416 575.46764L93.9925023594 567.565027813L88.295022375 559.0064L83.6732844531 550.209339688L83.0038076426 545.85189207L84.088853 541.59143L86.780068375 540.717540156L88.636791 542.14536375L95.4904 548.53558L94.69276 536.52407L91.9714 508.32518L91.22069 504.61851L89.5972614629 497.4492825L89.1635385781 484.12319625L90.239197625 445.721895L91.1956428594 402.85750125L90.612902709 383.952549375L88.78085 368.97291L95.7653934375 339.020363594L101.0576425 298.30225625L104.141040312 259.981668281L104.49903 237.22168L107.334941719 270.053988437L108.22175625 307.066675L109.19103 368.08144L102.880517598 381.956063027L97.9962601562 397.284174219L92.03003375 431.48293875L90.3393979687 469.041888906L91.9714 508.32518L94.69276 536.52407L101.838175156 588.272614219L109.65750375 633.95588875L115.742155469 669.467998906L117.68354 690.70305L113.824481328 718.33436582L112.406335625 748.592006563L114.571385 809.9532475L119.535891875 860.720742187L122.65706 886.82846L119.42641875 905.69735375L118.559305156 914.613480781L120.07645 921.36155L112.289415 946.252195L110.720978125 954.497218438L112.28774 963.68337L115.393140723 968.635901094L120.706999531 972.831713125L135.13014125 978.5347775L149.897264844 979.955758125L155.641100996 978.798965469L159.34847 976.25785L159.645026094 962.735905156L157.95942875 945.40780125L155.009442031 929.381826719L151.51283 919.76627L155.939375 904.97160125L156.6730025 894.037515781L154.65647 882.08954L158.214593535 871.386794922L161.764617656 852.546039375L167.98964875 801.397255L171.630125469 750.536703125L171.949456621 732.056238203L170.98461 721.8579L174.113724844 713.251860156L176.44507875 699.70789625L177.089755781 685.730081719L175.15884 675.82249L176.1245575 612.84594375L178.25528 550.90391L180.9455475 542.57241375L182.67526 550.75153L183.874375781 571.363626719L184.41375125 613.28977375L184.80156 676.06402L182.713429062 685.919214375L183.0122425 699.781745L184.997734687 713.210423125L187.96964 721.76406L187.004790957 731.962398203L187.324122031 750.442863125L190.96460375 801.303415L197.189643594 852.452199375L200.739672324 871.292954922L204.2978 881.9957L202.281267344 893.943671562L203.01489375 904.8777575L207.44143 919.67243L203.944825312 929.287982969L200.994845 945.31396125L199.309252187 962.642076406L199.60581 976.16404L203.313175684 978.70512541L209.057009219 979.861895156L223.82412875 978.44088875L238.247266406 972.737822969L243.561122598 968.542018496L246.66652 963.5895L248.233287344 954.403365781L246.66485125 946.15835125L238.8778 921.26771L240.394953594 914.519642188L239.52784125 905.6035175L236.29721 886.73462L239.418377969 860.626897813L244.38288375 809.8594025L246.547930156 748.498160938L245.129781973 718.240518711L241.27072 690.6092L243.212105937 669.374150469L249.29676 633.86204375L257.116089062 588.178772656L264.2615 536.43023L266.98286 508.23134L268.614863437 468.94804875L266.92423 431.3890975L260.958004062 397.19033L256.073745273 381.862216328L249.76323 367.98759L250.7325 306.97283375L251.619316875 269.960148281L254.45523 237.12784L254.813223906 259.8878325L257.89662125 298.20842L263.188867969 338.926525L270.17341 368.87907L268.341357168 383.858706504L267.758616719 402.763657031L268.71506125 445.62805125L269.790720156 484.029354844L269.356997676 497.35544209L267.73357 504.52467L266.98286 508.23134L264.2615 536.43023L263.46387 548.44175L270.3174725 542.051525L272.17419375 540.623700313L274.86541 541.49759L275.950456172 545.75805207L275.28097625 550.115499688L270.6592275 558.91256L264.9617425 567.471187813L262.1501 575.3738L267.282532773 574.594858496L272.926144687 572.092346094L278.573071133 567.617730957L283.7154475 560.92248125L287.84540918 551.758065137L290.455091562 539.875950781L291.036630039 525.027606348L289.08216 506.9645L294.247144844 476.469455156L304.38480125 427.86273625L308.784647793 402.008691504L311.387182031 377.916159219L311.178910566 357.681616387L309.704006008 349.666240076L307.14634 343.40154L308.43049918 332.400538047L308.127297187 314.629953125L303.8256425 267.53908L296.375041562 219.647011875L292.135656758 200.874933203L287.90916 188.47184L282.868391797 184.173994727L274.611964375 181.189517813L252.24074 177.3074275L228.372703125 173.119085938L218.245260078 169.751794961L210.58507 164.91801L206.84471625 146.0796575L206.370205469 136.658946563L208.9898 127.24129L213.595564941 117.625042033L216.616630156 104.961709078L217.74666623 90.5801163027L216.67934375 75.809088875L213.108333301 61.9774519629L206.727305469 50.4140307344L197.22993084 42.4476503574L191.216885535 40.2286083533L184.30988 39.407136L184.30988 39.407137"
       style="fill:#f0f0f0;fill-opacity:1;stroke:#000000;stroke-width:2.71108079;stroke-miterlimit:4;stroke-opacity:1;stroke-dasharray:none;display:inline" />
  </g>
</svg>
